<?xml version="1.0" standalone="no"?>
<!DOCTYPE svg PUBLIC "-//W3C//DTD SVG 1.1//EN" "http://www.w3.org/Graphics/SVG/1.1/DTD/svg11.dtd">
<svg xmlns="http://www.w3.org/2000/svg" width="1072" height="474" viewBox="0 0 1072 474">
<rect x="0" y="0" width="1072" height="474" fill="#ffffff" stroke="none" stroke-width="0"/>

<!-- Association CONCERNER_MATERIEL -->
<g>
	<line x1="89" y1="237" x2="89" y2="94" stroke="#d6604d" stroke-width="2"/>
	<line x1="272" y1="94" x2="89" y2="94" stroke="#d6604d" stroke-width="2"/>
	<g>
		<path d="M155 69 a14 14 90 0 1 14 14 V94 h-160 V83 a14 14 90 0 1 14 -14" fill="#f4a582" stroke="#f4a582" stroke-width="0"/>
		<path d="M169 94 v11 a14 14 90 0 1 -14 14 H23 a14 14 90 0 1 -14 -14 V94 H160" fill="#fddbc7" stroke="#fddbc7" stroke-width="0"/>
		<rect x="9" y="69" width="160" height="50" fill="none" rx="14" stroke="#d6604d" stroke-width="2"/>
		<line x1="9" y1="94" x2="169" y2="94" stroke="#d6604d" stroke-width="1"/>
		<text x="16" y="86.75" fill="#000000" font-family="Verdana" font-size="12">CONCERNER_MATERIEL</text>
	</g>
	<text x="94" y="136" fill="#4d4d4d" font-family="Verdana" font-size="12">1,1</text>
	<text x="174" y="111" fill="#4d4d4d" font-family="Verdana" font-size="12">0,N</text>
</g>

<!-- Association COMPOSER_DEMANDE -->
<g>
	<line x1="644" y1="94" x2="451" y2="94" stroke="#d6604d" stroke-width="2"/>
	<line x1="272" y1="94" x2="451" y2="94" stroke="#d6604d" stroke-width="2"/>
	<g>
		<path d="M513 69 a14 14 90 0 1 14 14 V94 h-152 V83 a14 14 90 0 1 14 -14" fill="#f4a582" stroke="#f4a582" stroke-width="0"/>
		<path d="M527 94 v11 a14 14 90 0 1 -14 14 H389 a14 14 90 0 1 -14 -14 V94 H152" fill="#fddbc7" stroke="#fddbc7" stroke-width="0"/>
		<rect x="375" y="69" width="152" height="50" fill="none" rx="14" stroke="#d6604d" stroke-width="2"/>
		<line x1="375" y1="94" x2="527" y2="94" stroke="#d6604d" stroke-width="1"/>
		<text x="382" y="86.75" fill="#000000" font-family="Verdana" font-size="12">COMPOSER_DEMANDE</text>
	</g>
	<text x="533" y="86" fill="#4d4d4d" font-family="Verdana" font-size="12">1,1</text>
	<text x="348" y="111" fill="#4d4d4d" font-family="Verdana" font-size="12">1,N</text>
</g>

<!-- Association GENERER_HISTORIQUE -->
<g>
	<line x1="644" y1="94" x2="841" y2="94" stroke="#d6604d" stroke-width="2"/>
	<line x1="1012" y1="94" x2="841" y2="94" stroke="#d6604d" stroke-width="2"/>
	<g>
		<path d="M907 69 a14 14 90 0 1 14 14 V94 h-160 V83 a14 14 90 0 1 14 -14" fill="#f4a582" stroke="#f4a582" stroke-width="0"/>
		<path d="M921 94 v11 a14 14 90 0 1 -14 14 H775 a14 14 90 0 1 -14 -14 V94 H160" fill="#fddbc7" stroke="#fddbc7" stroke-width="0"/>
		<rect x="761" y="69" width="160" height="50" fill="none" rx="14" stroke="#d6604d" stroke-width="2"/>
		<line x1="761" y1="94" x2="921" y2="94" stroke="#d6604d" stroke-width="1"/>
		<text x="769" y="86.75" fill="#000000" font-family="Verdana" font-size="12">GENERER_HISTORIQUE</text>
	</g>
	<text x="734" y="86" fill="#4d4d4d" font-family="Verdana" font-size="12">1,1</text>
	<text x="940" y="111" fill="#4d4d4d" font-family="Verdana" font-size="12">0,N</text>
</g>

<!-- Association CREER_MATERIEL -->
<g>
	<line x1="644" y1="380" x2="272" y2="237" stroke="#d6604d" stroke-width="2"/>
	<line x1="89" y1="237" x2="272" y2="237" stroke="#d6604d" stroke-width="2"/>
	<g>
		<path d="M320 212 a14 14 90 0 1 14 14 V237 h-124 V226 a14 14 90 0 1 14 -14" fill="#f4a582" stroke="#f4a582" stroke-width="0"/>
		<path d="M334 237 v11 a14 14 90 0 1 -14 14 H224 a14 14 90 0 1 -14 -14 V237 H124" fill="#fddbc7" stroke="#fddbc7" stroke-width="0"/>
		<rect x="210" y="212" width="124" height="50" fill="none" rx="14" stroke="#d6604d" stroke-width="2"/>
		<line x1="210" y1="237" x2="334" y2="237" stroke="#d6604d" stroke-width="1"/>
		<text x="217" y="229.75" fill="#000000" font-family="Verdana" font-size="12">CREER_MATERIEL</text>
	</g>
	<text x="558" y="370.93" fill="#4d4d4d" font-family="Verdana" font-size="12">1,1</text>
	<text x="159" y="254" fill="#4d4d4d" font-family="Verdana" font-size="12">0,N</text>
</g>

<!-- Association APPROUVER_DEMANDE -->
<g>
	<line x1="644" y1="380" x2="451" y2="237" stroke="#d6604d" stroke-width="2"/>
	<line x1="644" y1="94" x2="451" y2="237" stroke="#d6604d" stroke-width="2"/>
	<g>
		<path d="M516 212 a14 14 90 0 1 14 14 V237 h-158 V226 a14 14 90 0 1 14 -14" fill="#f4a582" stroke="#f4a582" stroke-width="0"/>
		<path d="M530 237 v11 a14 14 90 0 1 -14 14 H386 a14 14 90 0 1 -14 -14 V237 H158" fill="#fddbc7" stroke="#fddbc7" stroke-width="0"/>
		<rect x="372" y="212" width="158" height="50" fill="none" rx="14" stroke="#d6604d" stroke-width="2"/>
		<line x1="372" y1="237" x2="530" y2="237" stroke="#d6604d" stroke-width="1"/>
		<text x="380" y="229.75" fill="#000000" font-family="Verdana" font-size="12">APPROUVER_DEMANDE</text>
	</g>
	<text x="558" y="346.94" fill="#4d4d4d" font-family="Verdana" font-size="12">1,1</text>
	<text x="532" y="154.58" fill="#4d4d4d" font-family="Verdana" font-size="12">0,N</text>
</g>

<!-- Association VALIDER_DEMANDE -->
<g>
	<line x1="644" y1="380" x2="644" y2="237" stroke="#d6604d" stroke-width="2"/>
	<line x1="644" y1="94" x2="644" y2="237" stroke="#d6604d" stroke-width="2"/>
	<g>
		<path d="M699 212 a14 14 90 0 1 14 14 V237 h-138 V226 a14 14 90 0 1 14 -14" fill="#f4a582" stroke="#f4a582" stroke-width="0"/>
		<path d="M713 237 v11 a14 14 90 0 1 -14 14 H589 a14 14 90 0 1 -14 -14 V237 H138" fill="#fddbc7" stroke="#fddbc7" stroke-width="0"/>
		<rect x="575" y="212" width="138" height="50" fill="none" rx="14" stroke="#d6604d" stroke-width="2"/>
		<line x1="575" y1="237" x2="713" y2="237" stroke="#d6604d" stroke-width="1"/>
		<text x="583" y="229.75" fill="#000000" font-family="Verdana" font-size="12">VALIDER_DEMANDE</text>
	</g>
	<text x="649" y="287" fill="#4d4d4d" font-family="Verdana" font-size="12">1,1</text>
	<text x="649" y="196" fill="#4d4d4d" font-family="Verdana" font-size="12">0,N</text>
</g>

<!-- Association FAIRE_DEMANDE -->
<g>
	<line x1="644" y1="380" x2="841" y2="237" stroke="#d6604d" stroke-width="2"/>
	<line x1="644" y1="94" x2="841" y2="237" stroke="#d6604d" stroke-width="2"/>
	<g>
		<path d="M887 212 a14 14 90 0 1 14 14 V237 h-120 V226 a14 14 90 0 1 14 -14" fill="#f4a582" stroke="#f4a582" stroke-width="0"/>
		<path d="M901 237 v11 a14 14 90 0 1 -14 14 H795 a14 14 90 0 1 -14 -14 V237 H120" fill="#fddbc7" stroke="#fddbc7" stroke-width="0"/>
		<rect x="781" y="212" width="120" height="50" fill="none" rx="14" stroke="#d6604d" stroke-width="2"/>
		<line x1="781" y1="237" x2="901" y2="237" stroke="#d6604d" stroke-width="1"/>
		<text x="788" y="229.75" fill="#000000" font-family="Verdana" font-size="12">FAIRE_DEMANDE</text>
	</g>
	<text x="709" y="347.94" fill="#4d4d4d" font-family="Verdana" font-size="12">1,1</text>
	<text x="734" y="153.2" fill="#4d4d4d" font-family="Verdana" font-size="12">0,N</text>
</g>

<!-- Association CONTENIR_CATEGORIE -->
<g>
	<line x1="272" y1="380" x2="89" y2="380" stroke="#d6604d" stroke-width="2"/>
	<line x1="89" y1="237" x2="89" y2="380" stroke="#d6604d" stroke-width="2"/>
	<g>
		<path d="M154 355 a14 14 90 0 1 14 14 V380 h-158 V369 a14 14 90 0 1 14 -14" fill="#f4a582" stroke="#f4a582" stroke-width="0"/>
		<path d="M168 380 v11 a14 14 90 0 1 -14 14 H24 a14 14 90 0 1 -14 -14 V380 H158" fill="#fddbc7" stroke="#fddbc7" stroke-width="0"/>
		<rect x="10" y="355" width="158" height="50" fill="none" rx="14" stroke="#d6604d" stroke-width="2"/>
		<line x1="10" y1="380" x2="168" y2="380" stroke="#d6604d" stroke-width="1"/>
		<text x="17" y="372.75" fill="#000000" font-family="Verdana" font-size="12">CONTENIR_CATEGORIE</text>
	</g>
	<text x="186" y="397" fill="#4d4d4d" font-family="Verdana" font-size="12">1,1</text>
	<text x="94" y="347" fill="#4d4d4d" font-family="Verdana" font-size="12">0,N</text>
</g>

<!-- Association CREER_CATEGORIE -->
<g>
	<line x1="644" y1="380" x2="451" y2="380" stroke="#d6604d" stroke-width="2"/>
	<line x1="272" y1="380" x2="451" y2="380" stroke="#d6604d" stroke-width="2"/>
	<g>
		<path d="M504 355 a14 14 90 0 1 14 14 V380 h-134 V369 a14 14 90 0 1 14 -14" fill="#f4a582" stroke="#f4a582" stroke-width="0"/>
		<path d="M518 380 v11 a14 14 90 0 1 -14 14 H398 a14 14 90 0 1 -14 -14 V380 H134" fill="#fddbc7" stroke="#fddbc7" stroke-width="0"/>
		<rect x="384" y="355" width="134" height="50" fill="none" rx="14" stroke="#d6604d" stroke-width="2"/>
		<line x1="384" y1="380" x2="518" y2="380" stroke="#d6604d" stroke-width="1"/>
		<text x="391" y="372.75" fill="#000000" font-family="Verdana" font-size="12">CREER_CATEGORIE</text>
	</g>
	<text x="558" y="397" fill="#4d4d4d" font-family="Verdana" font-size="12">1,1</text>
	<text x="337" y="397" fill="#4d4d4d" font-family="Verdana" font-size="12">0,N</text>
</g>

<!-- Association RECEVOIR_NOTIFICATION -->
<g>
	<line x1="644" y1="380" x2="841" y2="380" stroke="#d6604d" stroke-width="2"/>
	<line x1="1012" y1="380" x2="841" y2="380" stroke="#d6604d" stroke-width="2"/>
	<g>
		<path d="M915 355 a14 14 90 0 1 14 14 V380 h-176 V369 a14 14 90 0 1 14 -14" fill="#f4a582" stroke="#f4a582" stroke-width="0"/>
		<path d="M929 380 v11 a14 14 90 0 1 -14 14 H767 a14 14 90 0 1 -14 -14 V380 H176" fill="#fddbc7" stroke="#fddbc7" stroke-width="0"/>
		<rect x="753" y="355" width="176" height="50" fill="none" rx="14" stroke="#d6604d" stroke-width="2"/>
		<line x1="753" y1="380" x2="929" y2="380" stroke="#d6604d" stroke-width="1"/>
		<text x="760" y="372.75" fill="#000000" font-family="Verdana" font-size="12">RECEVOIR_NOTIFICATION</text>
	</g>
	<text x="709" y="397" fill="#4d4d4d" font-family="Verdana" font-size="12">1,1</text>
	<text x="934" y="397" fill="#4d4d4d" font-family="Verdana" font-size="12">0,N</text>
</g>

<!-- Entity DEMANDE_MATERIEL -->
<g>
	<g>
		<rect x="201" y="18" width="142" height="25" fill="#bababa" stroke="none" stroke-width="0" opacity="1"/>
		<rect x="201" y="43" width="142" height="127" fill="#e0e0e0" stroke="none" stroke-width="0" opacity="1"/>
		<rect x="201" y="18" width="142" height="152" fill="none" stroke="#878787" stroke-width="2" opacity="1"/>
		<line x1="201" y1="43" x2="343" y2="43" stroke="#878787" stroke-width="1"/>
	</g>
	<text x="207" y="35.75" fill="#000000" font-family="Verdana" font-size="12">DEMANDE_MATERIEL</text>
	<text x="206" y="60.8" fill="#000000" font-family="Verdana" font-size="12">id</text>
	<line x1="206" y1="63" x2="218" y2="63" stroke="#000000" stroke-width="1"/>
	<text x="206" y="77.8" fill="#000000" font-family="Verdana" font-size="12">quantite_demandee</text>
	<text x="206" y="94.8" fill="#000000" font-family="Verdana" font-size="12">quantite_accordee</text>
	<text x="206" y="111.8" fill="#000000" font-family="Verdana" font-size="12">statut</text>
	<text x="206" y="128.8" fill="#000000" font-family="Verdana" font-size="12">date_validation</text>
	<text x="206" y="145.8" fill="#000000" font-family="Verdana" font-size="12">date_creation</text>
	<text x="206" y="162.8" fill="#000000" font-family="Verdana" font-size="12">date_modification</text>
</g>

<!-- Entity DEMANDE -->
<g>
	<g>
		<rect x="559" y="9" width="170" height="25" fill="#bababa" stroke="none" stroke-width="0" opacity="1"/>
		<rect x="559" y="34" width="170" height="145" fill="#e0e0e0" stroke="none" stroke-width="0" opacity="1"/>
		<rect x="559" y="9" width="170" height="170" fill="none" stroke="#878787" stroke-width="2" opacity="1"/>
		<line x1="559" y1="34" x2="729" y2="34" stroke="#878787" stroke-width="1"/>
	</g>
	<text x="613" y="26.75" fill="#000000" font-family="Verdana" font-size="12">DEMANDE</text>
	<text x="564" y="51.8" fill="#000000" font-family="Verdana" font-size="12">id</text>
	<line x1="564" y1="54" x2="576" y2="54" stroke="#000000" stroke-width="1"/>
	<text x="564" y="68.8" fill="#000000" font-family="Verdana" font-size="12">commentaire_validation</text>
	<text x="564" y="85.8" fill="#000000" font-family="Verdana" font-size="12">commentaire_approbation</text>
	<text x="564" y="102.8" fill="#000000" font-family="Verdana" font-size="12">date_creation</text>
	<text x="564" y="119.8" fill="#000000" font-family="Verdana" font-size="12">date_modification</text>
	<text x="564" y="136.8" fill="#000000" font-family="Verdana" font-size="12">date_validation</text>
	<text x="564" y="153.8" fill="#000000" font-family="Verdana" font-size="12">date_approbation</text>
	<text x="564" y="170.8" fill="#000000" font-family="Verdana" font-size="12">statut</text>
</g>

<!-- Entity HISTORIQUE -->
<g>
	<g>
		<rect x="967" y="43" width="90" height="25" fill="#bababa" stroke="none" stroke-width="0" opacity="1"/>
		<rect x="967" y="68" width="90" height="77" fill="#e0e0e0" stroke="none" stroke-width="0" opacity="1"/>
		<rect x="967" y="43" width="90" height="102" fill="none" stroke="#878787" stroke-width="2" opacity="1"/>
		<line x1="967" y1="68" x2="1057" y2="68" stroke="#878787" stroke-width="1"/>
	</g>
	<text x="973" y="60.75" fill="#000000" font-family="Verdana" font-size="12">HISTORIQUE</text>
	<text x="972" y="85.8" fill="#000000" font-family="Verdana" font-size="12">id</text>
	<line x1="972" y1="88" x2="984" y2="88" stroke="#000000" stroke-width="1"/>
	<text x="972" y="102.8" fill="#000000" font-family="Verdana" font-size="12">date_action</text>
	<text x="972" y="119.8" fill="#000000" font-family="Verdana" font-size="12">type_action</text>
	<text x="972" y="136.8" fill="#000000" font-family="Verdana" font-size="12">objet_type</text>
</g>

<!-- Entity MATERIEL -->
<g>
	<g>
		<rect x="24" y="144" width="130" height="25" fill="#bababa" stroke="none" stroke-width="0" opacity="1"/>
		<rect x="24" y="169" width="130" height="161" fill="#e0e0e0" stroke="none" stroke-width="0" opacity="1"/>
		<rect x="24" y="144" width="130" height="186" fill="none" stroke="#878787" stroke-width="2" opacity="1"/>
		<line x1="24" y1="169" x2="154" y2="169" stroke="#878787" stroke-width="1"/>
	</g>
	<text x="58" y="161.75" fill="#000000" font-family="Verdana" font-size="12">MATERIEL</text>
	<text x="29" y="186.8" fill="#000000" font-family="Verdana" font-size="12">id</text>
	<line x1="29" y1="189" x2="41" y2="189" stroke="#000000" stroke-width="1"/>
	<text x="29" y="203.8" fill="#000000" font-family="Verdana" font-size="12">nom</text>
	<text x="29" y="220.8" fill="#000000" font-family="Verdana" font-size="12">description</text>
	<text x="29" y="237.8" fill="#000000" font-family="Verdana" font-size="12">quantite_totale</text>
	<text x="29" y="254.8" fill="#000000" font-family="Verdana" font-size="12">quantite_disponible</text>
	<text x="29" y="271.8" fill="#000000" font-family="Verdana" font-size="12">etat</text>
	<text x="29" y="288.8" fill="#000000" font-family="Verdana" font-size="12">seuil_alerte</text>
	<text x="29" y="305.8" fill="#000000" font-family="Verdana" font-size="12">date_creation</text>
	<text x="29" y="322.8" fill="#000000" font-family="Verdana" font-size="12">date_modification</text>
</g>

<!-- Entity CATEGORIE -->
<g>
	<g>
		<rect x="212" y="329" width="120" height="25" fill="#bababa" stroke="none" stroke-width="0" opacity="1"/>
		<rect x="212" y="354" width="120" height="77" fill="#e0e0e0" stroke="none" stroke-width="0" opacity="1"/>
		<rect x="212" y="329" width="120" height="102" fill="none" stroke="#878787" stroke-width="2" opacity="1"/>
		<line x1="212" y1="354" x2="332" y2="354" stroke="#878787" stroke-width="1"/>
	</g>
	<text x="236" y="346.75" fill="#000000" font-family="Verdana" font-size="12">CATEGORIE</text>
	<text x="217" y="371.8" fill="#000000" font-family="Verdana" font-size="12">id</text>
	<line x1="217" y1="374" x2="229" y2="374" stroke="#000000" stroke-width="1"/>
	<text x="217" y="388.8" fill="#000000" font-family="Verdana" font-size="12">nom</text>
	<text x="217" y="405.8" fill="#000000" font-family="Verdana" font-size="12">date_creation</text>
	<text x="217" y="422.8" fill="#000000" font-family="Verdana" font-size="12">date_modification</text>
</g>

<!-- Entity UTILISATEUR -->
<g>
	<g>
		<rect x="584" y="295" width="120" height="25" fill="#bababa" stroke="none" stroke-width="0" opacity="1"/>
		<rect x="584" y="320" width="120" height="145" fill="#e0e0e0" stroke="none" stroke-width="0" opacity="1"/>
		<rect x="584" y="295" width="120" height="170" fill="none" stroke="#878787" stroke-width="2" opacity="1"/>
		<line x1="584" y1="320" x2="704" y2="320" stroke="#878787" stroke-width="1"/>
	</g>
	<text x="603" y="312.75" fill="#000000" font-family="Verdana" font-size="12">UTILISATEUR</text>
	<text x="589" y="337.8" fill="#000000" font-family="Verdana" font-size="12">id</text>
	<line x1="589" y1="340" x2="601" y2="340" stroke="#000000" stroke-width="1"/>
	<text x="589" y="354.8" fill="#000000" font-family="Verdana" font-size="12">email</text>
	<text x="589" y="371.8" fill="#000000" font-family="Verdana" font-size="12">password</text>
	<text x="589" y="388.8" fill="#000000" font-family="Verdana" font-size="12">nom</text>
	<text x="589" y="405.8" fill="#000000" font-family="Verdana" font-size="12">roles</text>
	<text x="589" y="422.8" fill="#000000" font-family="Verdana" font-size="12">statut</text>
	<text x="589" y="439.8" fill="#000000" font-family="Verdana" font-size="12">date_creation</text>
	<text x="589" y="456.8" fill="#000000" font-family="Verdana" font-size="12">date_modification</text>
</g>

<!-- Entity NOTIFICATION -->
<g>
	<g>
		<rect x="961" y="329" width="102" height="25" fill="#bababa" stroke="none" stroke-width="0" opacity="1"/>
		<rect x="961" y="354" width="102" height="77" fill="#e0e0e0" stroke="none" stroke-width="0" opacity="1"/>
		<rect x="961" y="329" width="102" height="102" fill="none" stroke="#878787" stroke-width="2" opacity="1"/>
		<line x1="961" y1="354" x2="1063" y2="354" stroke="#878787" stroke-width="1"/>
	</g>
	<text x="967" y="346.75" fill="#000000" font-family="Verdana" font-size="12">NOTIFICATION</text>
	<text x="966" y="371.8" fill="#000000" font-family="Verdana" font-size="12">id</text>
	<line x1="966" y1="374" x2="978" y2="374" stroke="#000000" stroke-width="1"/>
	<text x="966" y="388.8" fill="#000000" font-family="Verdana" font-size="12">message</text>
	<text x="966" y="405.8" fill="#000000" font-family="Verdana" font-size="12">lu</text>
	<text x="966" y="422.8" fill="#000000" font-family="Verdana" font-size="12">date_creation</text>
</g>
</svg>